<svg xmlns="http://www.w3.org/2000/svg" viewBox="0 0 100 100">
  <defs>
    <linearGradient id="bg" x1="0%" y1="0%" x2="100%" y2="100%">
      <stop offset="0%" style="stop-color:#1DB954;stop-opacity:1" />
      <stop offset="100%" style="stop-color:#1ed760;stop-opacity:1" />
    </linearGradient>
  </defs>
  
  <!-- Background circle -->
  <circle cx="50" cy="50" r="48" fill="url(#bg)"/>
  
  <!-- Music Note (single path for clean rendering) -->
  <path d="M 28 58 C 28 61, 26 64, 26 67 C 26 71, 29 74, 33 74 C 37 74, 40 71, 40 67 C 40 64, 38 61, 36 58 L 36 30 C 36 30, 48 28, 48 36 C 48 36, 48 32, 38 33 L 38 58 C 38 58, 35 56, 28 58 Z" 
        fill="#000000"/>
  
  <!-- Analytics bars -->
  <rect x="56" y="48" width="6" height="18" rx="3" fill="#000000"/>
  <rect x="65" y="38" width="6" height="28" rx="3" fill="#000000"/>
  <rect x="74" y="43" width="6" height="23" rx="3" fill="#000000"/>
</svg>
